<svg xmlns="http://www.w3.org/2000/svg" xmlns:xlink="http://www.w3.org/1999/xlink" width="393" height="320"><rect id="backgroundrect" width="100%" height="100%" x="0" y="0" fill="none" stroke="none" class="" style=""/><title>120-power-of-pen</title><g class="currentLayer" style=""><title>Layer 1</title><path d="M178.91641005307196,320.0000306896327 q-1.749,0 -3.488,-0.03900000000000003 l-1.677,-0.05100000000000004 q-0.8860000000000005,-0.026000000000000027 -1.77,-0.06000000000000004 l-2.263,-0.11700000000000008 l-1.175,-0.06800000000000007 l-2.335,-0.16700000000000018 l-1.082,-0.08900000000000009 c-0.532,-0.04600000000000005 -1.6270000000000002,-0.1500000000000001 -1.6270000000000002,-0.1500000000000001 l-0.994,-0.09200000000000011 l-2.6180000000000003,-0.2940000000000002 c-0.3520000000000002,-0.04100000000000003 -0.7000000000000004,-0.08100000000000006 -1.054,-0.126 c0,0 -1.6340000000000003,-0.2150000000000001 -2.066,-0.275 c-0.519,-0.07200000000000002 -1.064,-0.1500000000000001 -1.6070000000000002,-0.232 l-0.8630000000000004,-0.127 l-0.8850000000000005,-0.14100000000000001 c-0.6410000000000005,-0.1 -1.275,-0.2110000000000001 -1.908,-0.3210000000000003 l-0.9520000000000004,-0.16000000000000014 l-0.4080000000000002,-0.07700000000000005 c-0.7190000000000004,-0.132 -1.364,-0.257 -2.008,-0.3820000000000003 l-1.6,-0.3150000000000002 c-0.516,-0.10700000000000005 -1,-0.2120000000000001 -1.476,-0.3170000000000002 l-2.018,-0.4440000000000003 s-2.6260000000000003,-0.6240000000000004 -2.8440000000000003,-0.6790000000000007 l-3.188,-0.8260000000000004 l-3.232,-0.914 s-2.4,-0.7250000000000004 -2.685,-0.8130000000000004 c0,0 -2.657,-0.8580000000000004 -2.8920000000000003,-0.936 l-0.551,-0.1550000000000001 l-0.3000000000000002,-0.134 l-0.07100000000000002,-0.024000000000000014 c-0.7000000000000004,-0.2390000000000001 -1.389,-0.4850000000000002 -2.079,-0.7310000000000004 l-0.516,-0.1830000000000001 c-0.3070000000000002,-0.10800000000000005 -0.6140000000000004,-0.2160000000000001 -0.92,-0.3290000000000003 A160.2,160.2 0 0 1 21.639410053071956,130.48703068963272 a30.953,30.953 0 0 1 -21.591,-31.249 c0.918,-16.453 14.916,-29.144 31.4,-29.144 H41.501410053071965 v-4.126 a1.581,1.581 0 0 1 1.581,-1.581 h7.546 a159.988,159.988 0 0 1 250.922,-7.141 l1.5,-1.023 a3.015,3.015 0 0 1 3,-0.22700000000000015 l24.624,11.817 l59.57,28.489 a5.2,5.2 0 0 1 0.006000000000000008,9.371 l-53.879,25.856 A160.888,160.888 0 0 1 338.91641005307196,160.0000306896327 A160.058,160.058 0 0 1 234.05041005307197,310.2410306896327 c-0.2840000000000002,0.10600000000000002 -0.5810000000000004,0.2100000000000001 -0.8780000000000004,0.3140000000000002 l-0.533,0.1880000000000001 c-0.6900000000000007,0.2470000000000001 -1.3800000000000001,0.4930000000000002 -2.074,0.7300000000000004 l-0.07100000000000002,0.024000000000000014 l-0.2850000000000002,0.126 l-0.53,0.1510000000000001 l-2.895,0.936 c-0.3300000000000003,0.1 -1.2690000000000001,0.3850000000000003 -1.2690000000000001,0.3850000000000003 l-1.427,0.4330000000000002 l-0.8,0.23 c-0.4770000000000002,0.138 -0.9480000000000004,0.268 -1.419,0.4 l-0.98,0.277 l-3.291,0.8530000000000004 c-0.17400000000000004,0.04400000000000004 -3.2,0.7590000000000005 -3.2,0.7590000000000005 l-1.608,0.3500000000000002 c-0.4860000000000002,0.10700000000000005 -0.972,0.2130000000000001 -1.46,0.3150000000000002 l-1.622,0.3180000000000002 c-0.6600000000000007,0.128 -1.3,0.253 -1.952,0.3710000000000002 l-0.464,0.08800000000000008 l-0.9480000000000004,0.16000000000000014 c-0.6540000000000006,0.11300000000000006 -1.287,0.2200000000000001 -1.923,0.3230000000000003 l-0.8460000000000004,0.135 l-0.91,0.135 q-0.808,0.12200000000000005 -1.6270000000000002,0.234 c-0.4070000000000002,0.05700000000000003 -2.067,0.276 -2.067,0.276 c-0.3240000000000003,0.04100000000000003 -1.323,0.1560000000000001 -1.323,0.1560000000000001 c-0.4890000000000002,0.05700000000000003 -2.281,0.256 -2.281,0.256 l-1.175,0.10800000000000005 c-0.4700000000000002,0.04500000000000004 -0.9610000000000004,0.09300000000000011 -1.453,0.135 l-1.112,0.09200000000000011 l-2.313,0.16600000000000015 l-2.781,0.1530000000000001 l-0.6740000000000007,0.03300000000000003 c-0.6000000000000004,0.024000000000000014 -1.192,0.04300000000000004 -1.783,0.06000000000000004 l-1.745,0.05200000000000004 C181.24441005307193,319.9860306896327 180.08241005307195,320.0000306896327 178.91641005307196,320.0000306896327 z" style="fill:#002043" id="svg_5" class=""/><path d="M178.91641005307196,320.0000306896327 q-1.749,0 -3.488,-0.03900000000000003 l-1.677,-0.05100000000000004 q-0.8860000000000005,-0.026000000000000027 -1.77,-0.06000000000000004 l-2.263,-0.11700000000000008 l-1.175,-0.06800000000000007 l-2.335,-0.16700000000000018 l-1.082,-0.08900000000000009 c-0.532,-0.04600000000000005 -1.6270000000000002,-0.1500000000000001 -1.6270000000000002,-0.1500000000000001 l-0.994,-0.09200000000000011 l-2.6180000000000003,-0.2940000000000002 c-0.3520000000000002,-0.04100000000000003 -0.7000000000000004,-0.08100000000000006 -1.054,-0.126 c0,0 -1.6340000000000003,-0.2150000000000001 -2.066,-0.275 c-0.519,-0.07200000000000002 -1.064,-0.1500000000000001 -1.6070000000000002,-0.232 l-0.8630000000000004,-0.127 l-0.8850000000000005,-0.14100000000000001 c-0.6410000000000005,-0.1 -1.275,-0.2110000000000001 -1.908,-0.3210000000000003 l-0.9520000000000004,-0.16000000000000014 l-0.4080000000000002,-0.07700000000000005 c-0.7190000000000004,-0.132 -1.364,-0.257 -2.008,-0.3820000000000003 l-1.6,-0.3150000000000002 c-0.516,-0.10700000000000005 -1,-0.2120000000000001 -1.476,-0.3170000000000002 l-2.018,-0.4440000000000003 s-2.6260000000000003,-0.6240000000000004 -2.8440000000000003,-0.6790000000000007 l-3.188,-0.8260000000000004 l-3.232,-0.914 s-2.4,-0.7250000000000004 -2.685,-0.8130000000000004 c0,0 -2.657,-0.8580000000000004 -2.8920000000000003,-0.936 l-0.551,-0.1550000000000001 l-0.3000000000000002,-0.134 l-0.07100000000000002,-0.024000000000000014 c-0.7000000000000004,-0.2390000000000001 -1.389,-0.4850000000000002 -2.079,-0.7310000000000004 l-0.516,-0.1830000000000001 c-0.3070000000000002,-0.10800000000000005 -0.6140000000000004,-0.2160000000000001 -0.92,-0.3290000000000003 A160.2,160.2 0 0 1 21.639410053071956,130.48703068963272 a30.953,30.953 0 0 1 -21.591,-31.249 c0.918,-16.453 14.916,-29.144 31.4,-29.144 H41.501410053071965 v-4.126 a1.581,1.581 0 0 1 1.581,-1.581 h7.546 a159.988,159.988 0 0 1 250.922,-7.141 l1.5,-1.023 a3.015,3.015 0 0 1 3,-0.22700000000000015 l24.624,11.817 l59.57,28.489 a5.2,5.2 0 0 1 0.006000000000000008,9.371 l-53.879,25.856 A160.888,160.888 0 0 1 338.91641005307196,160.0000306896327 A160.058,160.058 0 0 1 234.05041005307197,310.2410306896327 c-0.2840000000000002,0.10600000000000002 -0.5810000000000004,0.2100000000000001 -0.8780000000000004,0.3140000000000002 l-0.533,0.1880000000000001 c-0.6900000000000007,0.2470000000000001 -1.3800000000000001,0.4930000000000002 -2.074,0.7300000000000004 l-0.07100000000000002,0.024000000000000014 l-0.2850000000000002,0.126 l-0.53,0.1510000000000001 l-2.895,0.936 c-0.3300000000000003,0.1 -1.2690000000000001,0.3850000000000003 -1.2690000000000001,0.3850000000000003 l-1.427,0.4330000000000002 l-0.8,0.23 c-0.4770000000000002,0.138 -0.9480000000000004,0.268 -1.419,0.4 l-0.98,0.277 l-3.291,0.8530000000000004 c-0.17400000000000004,0.04400000000000004 -3.2,0.7590000000000005 -3.2,0.7590000000000005 l-1.608,0.3500000000000002 c-0.4860000000000002,0.10700000000000005 -0.972,0.2130000000000001 -1.46,0.3150000000000002 l-1.622,0.3180000000000002 c-0.6600000000000007,0.128 -1.3,0.253 -1.952,0.3710000000000002 l-0.464,0.08800000000000008 l-0.9480000000000004,0.16000000000000014 c-0.6540000000000006,0.11300000000000006 -1.287,0.2200000000000001 -1.923,0.3230000000000003 l-0.8460000000000004,0.135 l-0.91,0.135 q-0.808,0.12200000000000005 -1.6270000000000002,0.234 c-0.4070000000000002,0.05700000000000003 -2.067,0.276 -2.067,0.276 c-0.3240000000000003,0.04100000000000003 -1.323,0.1560000000000001 -1.323,0.1560000000000001 c-0.4890000000000002,0.05700000000000003 -2.281,0.256 -2.281,0.256 l-1.175,0.10800000000000005 c-0.4700000000000002,0.04500000000000004 -0.9610000000000004,0.09300000000000011 -1.453,0.135 l-1.112,0.09200000000000011 l-2.313,0.16600000000000015 l-2.781,0.1530000000000001 l-0.6740000000000007,0.03300000000000003 c-0.6000000000000004,0.024000000000000014 -1.192,0.04300000000000004 -1.783,0.06000000000000004 l-1.745,0.05200000000000004 C181.24441005307193,319.9860306896327 180.08241005307195,320.0000306896327 178.91641005307196,320.0000306896327 z" style="fill:none;stroke:#fff;stroke-linecap:round;stroke-linejoin:round;stroke-width:2px" id="svg_6" class=""/><path d="M329.96041005307194,78.6320306896327 L310.00141005307194,69.0550306896327 l-6.521,4.446 a148.009,148.009 0 0 0 -242.219,2.886 H57.97141005307196 V81.4000306896327 q-0.2160000000000001,0.34500000000000036 -0.4310000000000002,0.6910000000000007 H35.37741005307197 A18.907,18.907 0 0 0 16.471410053071967,101.0000306896327 h0 a18.907,18.907 0 0 0 18.906,18.906 h5.511 a148.2,148.2 0 0 0 91.5,179.071 h0 c0.3910000000000003,0.14400000000000004 0.787,0.278 1.179,0.4190000000000002 c0.6780000000000007,0.2420000000000001 1.356,0.4850000000000002 2.039,0.7170000000000004 c0.1890000000000001,0.06500000000000006 0.3780000000000002,0.13 0.5670000000000004,0.19300000000000014 l0.020000000000000014,0.009000000000000011 c0.4300000000000002,0.14400000000000004 0.8640000000000004,0.28 1.3,0.4210000000000002 c0.4,0.13 0.8,0.262 1.2,0.3890000000000003 c0.1520000000000001,0.04800000000000003 0.3000000000000002,0.1 0.455,0.14400000000000004 c0.3750000000000002,0.11800000000000008 0.7530000000000004,0.22800000000000015 1.129,0.34300000000000036 l0.279,0.08400000000000007 c0.3590000000000002,0.10900000000000006 0.7160000000000004,0.2210000000000001 1.076,0.3260000000000003 c0.2390000000000001,0.07 0.4800000000000002,0.138 0.7200000000000004,0.2070000000000001 c0.4370000000000002,0.126 0.8760000000000004,0.2480000000000001 1.314,0.3700000000000002 l0.275,0.07700000000000005 c0.2190000000000001,0.06000000000000004 0.4370000000000002,0.125 0.6580000000000007,0.1850000000000001 c0.34100000000000036,0.09300000000000011 0.6860000000000007,0.1780000000000001 1.029,0.268 c0.4370000000000002,0.11500000000000007 0.8740000000000004,0.23 1.312,0.34100000000000036 c0.2170000000000001,0.05500000000000003 0.4320000000000002,0.11300000000000006 0.6490000000000006,0.16700000000000018 c0.273,0.06800000000000007 0.548,0.13 0.8220000000000004,0.2 l0.7000000000000004,0.16800000000000018 c0.3640000000000002,0.08600000000000008 0.7270000000000004,0.1760000000000001 1.092,0.26 l0.39400000000000035,0.08900000000000009 c0.3860000000000003,0.08800000000000008 0.774,0.16800000000000018 1.1600000000000001,0.252 c0.55,0.12000000000000002 1.1,0.2430000000000001 1.6520000000000001,0.3570000000000002 l0.3730000000000002,0.07500000000000002 c0.3740000000000002,0.07600000000000005 0.7500000000000004,0.1450000000000001 1.125,0.2190000000000001 c0.6000000000000004,0.11600000000000008 1.195,0.232 1.8,0.34100000000000036 c0.1460000000000001,0.027000000000000027 0.2910000000000002,0.05700000000000003 0.4370000000000002,0.08400000000000007 c0.23500000000000001,0.04200000000000003 0.4730000000000002,0.07700000000000005 0.7080000000000004,0.11800000000000008 l0.1850000000000001,0.031000000000000028 q0.8790000000000004,0.1530000000000001 1.7600000000000002,0.3000000000000002 c0.268,0.04300000000000004 0.534,0.08700000000000008 0.8,0.128 s0.549,0.08200000000000007 0.8230000000000004,0.12200000000000005 q0.7440000000000004,0.11100000000000006 1.489,0.2140000000000001 c0.3910000000000003,0.05400000000000005 0.783,0.10800000000000005 1.176,0.1590000000000001 c0.2440000000000001,0.03200000000000003 0.4870000000000002,0.06500000000000006 0.7320000000000004,0.1 c0.4100000000000002,0.05100000000000004 0.8220000000000004,0.1 1.233,0.1450000000000001 c0.46,0.05400000000000005 0.92,0.10700000000000005 1.381,0.1560000000000001 c0.254,0.027000000000000027 0.506,0.05800000000000004 0.7590000000000005,0.08400000000000007 c0.1840000000000001,0.019000000000000013 0.3690000000000002,0.03300000000000003 0.553,0.05100000000000004 c0.1590000000000001,0.016000000000000014 0.3190000000000003,0.02900000000000002 0.4780000000000002,0.04500000000000004 c0.457,0.04300000000000004 0.914,0.08700000000000008 1.372,0.126 q0.517,0.04500000000000004 1.038,0.08600000000000008 c0.33400000000000035,0.026000000000000027 0.6690000000000007,0.04900000000000003 1,0.07300000000000002 c0.3780000000000002,0.027000000000000027 0.7550000000000004,0.05600000000000003 1.134,0.08000000000000006 c0.454,0.02900000000000002 0.909,0.05300000000000004 1.365,0.07800000000000006 c0.3570000000000002,0.020000000000000014 0.7140000000000004,0.04100000000000003 1.072,0.05800000000000004 c0.252,0.012000000000000007 0.5,0.02500000000000002 0.7560000000000004,0.03600000000000001 c0.6090000000000004,0.026000000000000027 1.22,0.04300000000000004 1.831,0.06200000000000005 c0.33400000000000035,0.010000000000000007 0.6660000000000007,0.024000000000000014 1,0.03200000000000003 l0.3770000000000002,0.010000000000000007 q1.61,0.035 3.226,0.03600000000000001 t3.226,-0.03600000000000001 l0.3760000000000002,-0.010000000000000007 c0.33500000000000035,-0.008000000000000007 0.6670000000000007,-0.022000000000000026 1,-0.03200000000000003 c0.6110000000000004,-0.019000000000000013 1.222,-0.03600000000000001 1.831,-0.06200000000000005 l0.7560000000000004,-0.03600000000000001 c0.3570000000000002,-0.017000000000000015 0.7150000000000004,-0.03800000000000001 1.072,-0.05800000000000004 c0.455,-0.02500000000000002 0.911,-0.04900000000000003 1.365,-0.07800000000000006 c0.3790000000000002,-0.024000000000000014 0.7560000000000004,-0.05300000000000004 1.134,-0.08000000000000006 c0.33500000000000035,-0.024000000000000014 0.6710000000000007,-0.04700000000000003 1,-0.07300000000000002 s0.6920000000000007,-0.05600000000000003 1.038,-0.08600000000000008 c0.458,-0.03900000000000003 0.915,-0.08300000000000007 1.371,-0.126 c0.16000000000000014,-0.016000000000000014 0.3200000000000003,-0.02900000000000002 0.4790000000000002,-0.04500000000000004 c0.1840000000000001,-0.018000000000000013 0.3690000000000002,-0.03200000000000003 0.553,-0.05100000000000004 c0.253,-0.026000000000000027 0.5,-0.05700000000000003 0.7580000000000005,-0.08400000000000007 c0.461,-0.04900000000000003 0.922,-0.1 1.381,-0.1560000000000001 c0.4120000000000002,-0.04800000000000003 0.8240000000000004,-0.09400000000000011 1.234,-0.1450000000000001 c0.2450000000000001,-0.031000000000000028 0.4880000000000002,-0.06400000000000006 0.7320000000000004,-0.1 c0.3930000000000003,-0.05100000000000004 0.785,-0.1 1.176,-0.1590000000000001 q0.7450000000000004,-0.1 1.489,-0.2140000000000001 c0.274,-0.04000000000000003 0.549,-0.07900000000000006 0.8230000000000004,-0.12200000000000005 s0.534,-0.08500000000000008 0.8,-0.128 q0.8820000000000005,-0.14200000000000004 1.762,-0.3000000000000002 l0.1830000000000001,-0.031000000000000028 c0.23600000000000004,-0.04100000000000003 0.4740000000000002,-0.07600000000000005 0.7090000000000004,-0.11800000000000008 c0.1460000000000001,-0.027000000000000027 0.2910000000000002,-0.05700000000000003 0.4370000000000002,-0.08400000000000007 c0.6000000000000004,-0.10900000000000006 1.2,-0.22500000000000014 1.8,-0.34100000000000036 c0.3740000000000002,-0.07400000000000002 0.7510000000000004,-0.14300000000000004 1.124,-0.2190000000000001 l0.3740000000000002,-0.07500000000000002 c0.553,-0.11400000000000007 1.1,-0.23700000000000004 1.6520000000000001,-0.3570000000000002 c0.3860000000000003,-0.08400000000000007 0.774,-0.16400000000000015 1.1600000000000001,-0.252 l0.39400000000000035,-0.08900000000000009 c0.3650000000000002,-0.08400000000000007 0.7270000000000004,-0.17400000000000004 1.091,-0.26 c0.23500000000000001,-0.05600000000000003 0.4690000000000002,-0.11100000000000006 0.7000000000000004,-0.16800000000000018 c0.274,-0.06600000000000006 0.549,-0.128 0.8220000000000004,-0.2 c0.2170000000000001,-0.05400000000000005 0.4320000000000002,-0.11200000000000006 0.6490000000000006,-0.16700000000000018 c0.4380000000000002,-0.11100000000000006 0.8750000000000004,-0.22600000000000015 1.312,-0.34100000000000036 c0.34300000000000036,-0.0900000000000001 0.6870000000000007,-0.17500000000000004 1.029,-0.268 c0.2200000000000001,-0.06000000000000004 0.4380000000000002,-0.125 0.6580000000000007,-0.1850000000000001 l0.274,-0.07700000000000005 c0.4390000000000002,-0.12200000000000005 0.8780000000000004,-0.2440000000000001 1.315,-0.3700000000000002 c0.2400000000000001,-0.06900000000000008 0.4810000000000002,-0.137 0.7200000000000004,-0.2070000000000001 c0.3600000000000002,-0.10500000000000002 0.7170000000000004,-0.2170000000000001 1.075,-0.3260000000000003 l0.279,-0.08400000000000007 c0.3770000000000002,-0.11500000000000007 0.7540000000000004,-0.22500000000000014 1.129,-0.34300000000000036 c0.1530000000000001,-0.04700000000000003 0.3000000000000002,-0.1 0.456,-0.14400000000000004 c0.4,-0.127 0.8,-0.259 1.195,-0.3890000000000003 c0.4320000000000002,-0.14100000000000001 0.8660000000000004,-0.277 1.3,-0.4210000000000002 l0.020000000000000014,-0.009000000000000011 c0.1900000000000001,-0.06300000000000006 0.3790000000000002,-0.128 0.5680000000000004,-0.19300000000000014 c0.6830000000000007,-0.232 1.36,-0.4750000000000002 2.038,-0.7170000000000004 c0.3930000000000003,-0.14100000000000001 0.789,-0.275 1.18,-0.4190000000000002 h0 a148.171,148.171 0 0 0 92.774,-174.19 L376.73141005307195,101.0000306896327 z" style="fill:#fff" id="svg_7" class=""/><circle cx="183.1983949163532" cy="160.00002598086576" r="148" style="fill:#1895de" id="svg_8" class=""/><circle cx="183.1983949163532" cy="160.00002598086576" r="109.86499786376953" style="fill:#28b1d5" id="svg_9" class=""/><circle cx="183.1983949163532" cy="160.00002598086576" r="148" style="fill:none;stroke:#020129;stroke-linecap:round;stroke-linejoin:round;stroke-width:8px" id="svg_10" class=""/><path d="M35.18741005307198,82.09403068963269 H265.201410053072 a0,0 0 0 1 0,0 v37.812 a0,0 0 0 1 0,0 H35.18741005307198 A18.906,18.906 0 0 1 16.281410053071966,101.0000306896327 v0 a18.906,18.906 0 0 1 18.906,-18.906 z" style="fill:#d7182e" id="svg_11" class=""/><path d="M17.139410053071956,95.3570306896327 A18.883,18.883 0 0 0 16.281410053071966,101.0000306896327 h0 a18.906,18.906 0 0 0 18.906,18.906 H265.201410053072 V108.6200306896327 H35.18741005307198 A18.913,18.913 0 0 1 17.139410053071956,95.3570306896327 z" style="fill:#890c27;opacity:0.93" id="svg_12" class=""/><path d="M35.18741005307198,82.09403068963269 A18.906,18.906 0 0 0 16.281410053071966,101.0000306896327 h0 a18.918,18.918 0 0 0 0.4700000000000002,4.143 a18.9,18.9 0 0 1 18.436,-14.763 H265.201410053072 v-8.286 z" style="fill:#ffa663;opacity:0.67" id="svg_13" class=""/><path d="M35.18741005307198,82.09403068963269 H265.201410053072 a0,0 0 0 1 0,0 v37.812 a0,0 0 0 1 0,0 H35.18741005307198 A18.906,18.906 0 0 1 16.281410053071966,101.0000306896327 v0 a18.906,18.906 0 0 1 18.906,-18.906 z" style="fill:none;stroke:#020129;stroke-linecap:round;stroke-linejoin:round;stroke-width:8px" id="svg_14" class=""/><rect x="265.1983949163532" y="76.38701938906888" width="14.666999816894531" height="49.22600173950195" style="fill:#ffdc7b" id="svg_15" class=""/><rect x="265.1983949163532" y="76.30202793399076" width="14.666999816894531" height="11.755999565124512" style="fill:#fff;opacity:0.43" id="svg_16" class=""/><rect x="265.1983949163532" y="110.65201877871732" width="14.666999816894531" height="15.045999526977539" style="fill:#f48d31" id="svg_17" class=""/><rect x="265.1983949163532" y="76.38701938906888" width="14.666999816894531" height="49.22600173950195" style="fill:none;stroke:#020129;stroke-linecap:round;stroke-linejoin:round;stroke-width:8px" id="svg_18" class=""/><rect x="57.78140272885321" y="76.38701938906888" width="14.666999816894531" height="49.22600173950195" style="fill:#ffdc7b" id="svg_19" class=""/><rect x="57.78140272885321" y="76.38701938906888" width="14.666999816894531" height="11.755999565124512" style="fill:#fff;opacity:0.43" id="svg_20" class=""/><rect x="57.78140272885321" y="110.73803257266263" width="14.666999816894531" height="15.045999526977539" style="fill:#f48d31" id="svg_21" class=""/><rect x="57.78140272885321" y="76.38701938906888" width="14.666999816894531" height="49.22600173950195" style="fill:none;stroke:#020129;stroke-linecap:round;stroke-linejoin:round;stroke-width:8px" id="svg_22" class=""/><polygon points="279.92142500668524,112.37002109805326 310.0494157293415,132.90801548281888 376.54142012387274,101.00002598086576 309.82340254574774,69.09202122012357 279.92142500668524,89.63102268496732 279.92142500668524,112.37002109805326 " style="fill:#f48d31" id="svg_23" class=""/><polygon points="279.92142500668524,112.37002109805326 310.04840864926337,132.90801548281888 376.54142012387274,101.00002598086576 279.92142500668524,101.00002598086576 279.92142500668524,112.37002109805326 " style="fill:#ee6e31" id="svg_24" class=""/><polygon points="279.92142500668524,105.86703037539701 311.19840254574774,116.45302891055326 376.54142012387274,101.00002598086576 310.0494157293415,132.90801548281888 279.92142500668524,112.37002109805326 279.92142500668524,105.86703037539701 " style="fill:#e65331" id="svg_25" class=""/><polygon points="279.6854325750446,96.09601902285794 310.9624101141071,78.75402378360013 367.6844254949665,101.00002598086576 309.81342329770087,69.05501865664701 279.6854325750446,89.5930283002017 279.6854325750446,96.09601902285794 " style="fill:#ffe085" id="svg_26" class=""/><polygon points="279.92142500668524,112.37002109805326 310.0494157293415,132.90801548281888 376.54142012387274,101.00002598086576 309.82340254574774,69.09202122012357 279.92142500668524,89.63102268496732 279.92142500668524,112.37002109805326 " style="fill:none;stroke:#020129;stroke-linecap:round;stroke-linejoin:round;stroke-width:8px" id="svg_27" class=""/><line x1="376.9214173772907" y1="101.00002598086576" x2="320.9214173772907" y2="101.00002598086576" style="fill:none;stroke:#020129;stroke-linecap:round;stroke-linejoin:round;stroke-width:8px" id="svg_28" class=""/><circle cx="321.76641859799383" cy="101.00002598086576" r="8.28600025177002" style="fill:#020129" id="svg_29" class=""/><rect x="145.69841017514227" y="167.39403843203763" width="75" height="130.7259979248047" style="fill:#ffa183" id="svg_30" class=""/><rect x="145.69841017514227" y="167.39403843203763" width="75" height="130.7259979248047" style="fill:#f9a991" id="svg_31" class=""/><path d="M145.70141005307195,202.7670306896327 a51.986,51.986 0 0 0 23.833,5.766 h27.334 a51.986,51.986 0 0 0 23.833,-5.766 V167.3940306896327 h-75 z" style="fill:#ffa183;opacity:0.58;mix-blend-mode:multiply" id="svg_32" class=""/><rect x="145.69841017514227" y="167.39403843203763" width="75" height="130.7259979248047" style="fill:none;stroke:#020129;stroke-linecap:round;stroke-linejoin:round;stroke-width:8px" id="svg_33" class=""/><path d="M125.20141005307195,89.4530306896327 h116 a0,0 0 0 1 0,0 V156.20003068963268 a44.333,44.333 0 0 1 -44.333,44.333 H169.53141005307197 A44.333,44.333 0 0 1 125.20141005307195,156.20003068963268 V89.4530306896327 A0,0 0 0 1 125.20141005307195,89.4530306896327 z" style="fill:#f9a991" id="svg_34" class=""/><path d="M196.86441005307194,186.37403068963272 H169.53141005307197 A44.333,44.333 0 0 1 125.20141005307195,142.04003068963272 V156.20003068963268 a44.332,44.332 0 0 0 44.333,44.333 h27.333 A44.333,44.333 0 0 0 241.20141005307198,156.20003068963268 V142.04003068963272 A44.334,44.334 0 0 1 196.86441005307194,186.37403068963272 z" style="fill:#f98568" id="svg_35" class=""/><path d="M125.20141005307195,89.4530306896327 h116 a0,0 0 0 1 0,0 V156.20003068963268 a44.333,44.333 0 0 1 -44.333,44.333 H169.53141005307197 A44.333,44.333 0 0 1 125.20141005307195,156.20003068963268 V89.4530306896327 A0,0 0 0 1 125.20141005307195,89.4530306896327 z" style="fill:none;stroke:#020129;stroke-linecap:round;stroke-linejoin:round;stroke-width:8px" id="svg_36" class=""/><rect x="125.19841017514227" y="67.2910263470767" width="29" height="61.86899948120117" rx="14.5" style="fill:#f9a991" id="svg_37" class=""/><rect x="154.1983949163532" y="60.66202854434232" width="29" height="68.38899993896484" rx="14.5" style="fill:#f9a991" id="svg_38" class=""/><rect x="183.1983949163532" y="59.45302891055326" width="29" height="69.5979995727539" rx="14.5" style="fill:#f9a991" id="svg_39" class=""/><rect x="212.1983949163532" y="68.39602207461576" width="29" height="58.55099868774414" rx="14.5" style="fill:#f9a991" id="svg_40" class=""/><path d="M143.33941005307196,114.20003068963268 h-7.283 A10.858,10.858 0 0 1 125.20141005307195,103.33603068963271 V114.66003068963269 a14.5,14.5 0 0 0 29,0 V103.33603068963271 A10.859,10.859 0 0 1 143.33941005307196,114.20003068963268 z" style="fill:#f98568" id="svg_41" class=""/><path d="M172.33941005307196,114.08603068963271 h-7.283 A10.858,10.858 0 0 1 154.20141005307198,103.2280306896327 v11.323 a14.5,14.5 0 0 0 29,0 V103.2280306896327 A10.858,10.858 0 0 1 172.33941005307196,114.08603068963271 z" style="fill:#f98568" id="svg_42" class=""/><path d="M201.33941005307196,114.08603068963271 h-7.283 A10.858,10.858 0 0 1 183.20141005307198,103.2280306896327 v11.323 a14.5,14.5 0 0 0 29,0 V103.2280306896327 A10.858,10.858 0 0 1 201.33941005307196,114.08603068963271 z" style="fill:#ffa183;opacity:0.58;mix-blend-mode:multiply" id="svg_43" class=""/><path d="M230.33941005307196,111.9820306896327 h-7.283 A10.858,10.858 0 0 1 212.20141005307198,101.12303068963269 v11.323 a14.5,14.5 0 1 0 29,0 V101.12303068963269 A10.859,10.859 0 0 1 230.33941005307196,111.9820306896327 z" style="fill:#ffa183;opacity:0.58;mix-blend-mode:multiply" id="svg_44" class=""/><path d="M139.70141005307195,67.29103068963269 a14.5,14.5 0 0 0 -14.5,14.5 v9.6 a14.5,14.5 0 1 1 29,0 v-9.6 A14.5,14.5 0 0 0 139.70141005307195,67.29103068963269 z" style="fill:#fff;opacity:0.43" id="svg_45" class=""/><path d="M168.70141005307198,60.6620306896327 a14.5,14.5 0 0 0 -14.5,14.5 v9.6 a14.5,14.5 0 0 1 29,0 v-9.6 A14.5,14.5 0 0 0 168.70141005307198,60.6620306896327 z" style="fill:#fff;opacity:0.43" id="svg_46" class=""/><path d="M197.70141005307198,59.4530306896327 a14.5,14.5 0 0 0 -14.5,14.5 v9.6 a14.5,14.5 0 0 1 29,0 v-9.6 A14.5,14.5 0 0 0 197.70141005307198,59.4530306896327 z" style="fill:#fff;opacity:0.43" id="svg_47" class=""/><path d="M226.70141005307198,68.4000306896327 a14.5,14.5 0 0 0 -14.5,14.5 v9.6 a14.5,14.5 0 0 1 29,0 v-9.6 A14.5,14.5 0 0 0 226.70141005307198,68.4000306896327 z" style="fill:#fff;opacity:0.43" id="svg_48" class=""/><rect x="125.19841017514227" y="67.2910263470767" width="29" height="61.86899948120117" rx="14.5" style="fill:none;stroke:#020129;stroke-linecap:round;stroke-linejoin:round;stroke-width:8px" id="svg_49" class=""/><rect x="154.1983949163532" y="60.66202854434232" width="29" height="68.38899993896484" rx="14.5" style="fill:none;stroke:#020129;stroke-linecap:round;stroke-linejoin:round;stroke-width:8px" id="svg_50" class=""/><rect x="183.1983949163532" y="59.45302891055326" width="29" height="69.5979995727539" rx="14.5" style="fill:none;stroke:#020129;stroke-linecap:round;stroke-linejoin:round;stroke-width:8px" id="svg_51" class=""/><rect x="212.1983949163532" y="68.39602207461576" width="29" height="58.55099868774414" rx="14.5" style="fill:none;stroke:#020129;stroke-linecap:round;stroke-linejoin:round;stroke-width:8px" id="svg_52" class=""/><path d="M220.70141005307198,145.45303068963267 h-25 a14.5,14.5 0 0 1 -14.5,-14.5 h0 a14.5,14.5 0 0 1 14.5,-14.5 h31 a14.5,14.5 0 0 1 14.5,14.5 v14.5 z" style="fill:#f9a991" id="svg_53" class=""/><path d="M195.70141005307198,136.6320306896327 a14.5,14.5 0 0 1 -13.812,-10.09 a14.509,14.509 0 0 0 -0.5650000000000004,6.307 a14.766,14.766 0 0 0 14.765,12.6 h28.652 a8.821,8.821 0 0 0 -8.821,-8.821 z" style="fill:#f98568" id="svg_54" class=""/><path d="M226.70141005307198,116.45303068963267 h-31 a14.5,14.5 0 0 0 -13.869,18.732 A14.5,14.5 0 0 1 195.70141005307198,124.91703068963267 h31 a14.5,14.5 0 0 1 14.5,14.5 v-8.464 A14.5,14.5 0 0 0 226.70141005307198,116.45303068963267 z" style="fill:#fff;opacity:0.43" id="svg_55" class=""/><path d="M220.70141005307198,145.45303068963267 h-25 a14.5,14.5 0 0 1 -14.5,-14.5 h0 a14.5,14.5 0 0 1 14.5,-14.5 h31 a14.5,14.5 0 0 1 14.5,14.5 v14.5 " style="fill:none;stroke:#020129;stroke-linecap:round;stroke-linejoin:round;stroke-width:8px" id="svg_56" class=""/><path d="M192.54941005307194,126.54203068963267 h7.129 a4.944,4.944 0 0 0 4.971,-4.916 h0 " style="fill:none;stroke:#0a002d;stroke-linecap:round;stroke-linejoin:round;stroke-width:4.02195869070255px" id="svg_57" class=""/><path d="M132.20141005307195,298.97703068963267 a148.643,148.643 0 0 0 102,0 v-66.22 h-102 z" style="fill:#2561a1" id="svg_58" class=""/><path d="M132.20141005307195,298.97703068963267 a148.643,148.643 0 0 0 102,0 v-66.22 h-102 z" style="fill:#2561a1" id="svg_59" class=""/><path d="M132.20141005307195,298.97703068963267 a148.643,148.643 0 0 0 102,0 v-66.22 h-102 z" style="fill:#2561a1" id="svg_60" class=""/><path d="M132.20141005307195,232.7570306896327 v66.22 a147.71,147.71 0 0 0 51,9.023 V232.7570306896327 z" style="fill:#1c5393" id="svg_61" class=""/><rect x="132.19841017514227" y="232.75701450625638" width="102" height="8.57699966430664" style="fill:#a4c7e2" id="svg_62" class=""/><path d="M132.20141005307195,295.0370306896327 a5.573,5.573 0 0 0 3.806,5.2780000000000005 a148.75,148.75 0 0 0 94.387,0 a5.574,5.574 0 0 0 3.807,-5.2780000000000005 v-62.28 h-102 z" style="fill:none;stroke:#020129;stroke-linecap:round;stroke-linejoin:round;stroke-width:8px" id="svg_63" class=""/><path d="M98.89541005307197,148.21503068963267 h0 a5.063,5.063 0 0 1 -5.063,-5.063 h0 a3.5540000000000003,3.5540000000000003 0 0 0 -3.125,-3.6 a3.434,3.434 0 0 0 -3.741,3.42 v0.1790000000000001 a5.063,5.063 0 0 1 -5.063,5.063 h0 a3.5540000000000003,3.5540000000000003 0 0 0 -3.6,3.125 a3.434,3.434 0 0 0 3.42,3.741 h0.1780000000000001 a5.063,5.063 0 0 1 5.063,5.063 h0 a3.5540000000000003,3.5540000000000003 0 0 0 3.126,3.6 a3.433,3.433 0 0 0 3.74,-3.42 v-0.1780000000000001 a5.063,5.063 0 0 1 5.063,-5.063 h0.1790000000000001 a3.434,3.434 0 0 0 3.419,-3.741 A3.5540000000000003,3.5540000000000003 0 0 0 98.89541005307197,148.21503068963267 z" style="fill:#fff" id="svg_64" class=""/><path d="M181.39241005307196,36.3110306896327 h0 a2.532,2.532 0 0 1 -2.532,-2.532 h0 a1.776,1.776 0 0 0 -1.562,-1.8 a1.7160000000000002,1.7160000000000002 0 0 0 -1.87,1.71 v0.08900000000000009 a2.532,2.532 0 0 1 -2.532,2.532 h0 a1.7770000000000001,1.7770000000000001 0 0 0 -1.8,1.562 a1.717,1.717 0 0 0 1.71,1.871 h0.08900000000000009 a2.532,2.532 0 0 1 2.532,2.531 h0 a1.775,1.775 0 0 0 1.562,1.8 a1.7160000000000002,1.7160000000000002 0 0 0 1.87,-1.71 v-0.08900000000000009 a2.532,2.532 0 0 1 2.532,-2.531 h0.08900000000000009 a1.717,1.717 0 0 0 1.71,-1.871 A1.7770000000000001,1.7770000000000001 0 0 0 181.39241005307196,36.3110306896327 z" style="fill:#fff" id="svg_65" class=""/><path d="M117.35841005307196,240.4330306896327 h0 a1.444,1.444 0 0 1 -1.444,-1.444 h0 a1.014,1.014 0 0 0 -0.8910000000000005,-1.026 a0.98,0.98 0 0 0 -1.067,0.975 v0.05100000000000004 a1.443,1.443 0 0 1 -1.443,1.444 h0 a1.012,1.012 0 0 0 -1.026,0.8910000000000005 a0.979,0.979 0 0 0 0.975,1.067 h0.05100000000000004 a1.443,1.443 0 0 1 1.443,1.444 h0 a1.014,1.014 0 0 0 0.8920000000000005,1.026 a0.979,0.979 0 0 0 1.066,-0.975 v-0.05100000000000004 a1.444,1.444 0 0 1 1.444,-1.444 h0.05100000000000004 a0.98,0.98 0 0 0 0.975,-1.067 A1.014,1.014 0 0 0 117.35841005307196,240.4330306896327 z" style="fill:#fff" id="svg_66" class=""/><path d="M301.40141005307197,189.82503068963268 h0 a1.087,1.087 0 0 1 -1.087,-1.086 h0 a0.7630000000000005,0.7630000000000005 0 0 0 -0.6710000000000007,-0.772 a0.7370000000000004,0.7370000000000004 0 0 0 -0.8,0.7340000000000004 v0.03900000000000003 a1.087,1.087 0 0 1 -1.087,1.086 h0 a0.7630000000000005,0.7630000000000005 0 0 0 -0.772,0.6710000000000007 a0.7370000000000004,0.7370000000000004 0 0 0 0.7340000000000004,0.8 h0.03800000000000001 a1.087,1.087 0 0 1 1.087,1.086 h0 a0.7620000000000005,0.7620000000000005 0 0 0 0.6700000000000007,0.772 a0.7370000000000004,0.7370000000000004 0 0 0 0.8,-0.7340000000000004 v-0.03800000000000001 A1.087,1.087 0 0 1 301.40141005307197,191.3000306896327 h0.03800000000000001 a0.7370000000000004,0.7370000000000004 0 0 0 0.7340000000000004,-0.8 A0.7630000000000005,0.7630000000000005 0 0 0 301.40141005307197,189.82503068963268 z" style="fill:#fff" id="svg_67" class=""/><path d="M284.581410053072,143.10703068963272 h0 a2.773,2.773 0 0 1 -2.773,-2.773 h0 a1.961,1.961 0 0 0 -1.6920000000000006,-1.984 a1.8880000000000003,1.8880000000000003 0 0 0 -2.082,1.8770000000000002 v0.10800000000000005 a2.773,2.773 0 0 1 -2.7720000000000002,2.773 h0 a1.961,1.961 0 0 0 -1.9849999999999999,1.6920000000000006 a1.887,1.887 0 0 0 1.8770000000000002,2.081 h0.10800000000000005 a2.773,2.773 0 0 1 2.7720000000000002,2.773 h0 a1.9620000000000002,1.9620000000000002 0 0 0 1.6920000000000006,1.9849999999999999 a1.8880000000000003,1.8880000000000003 0 0 0 2.082,-1.8770000000000002 v-0.1 a2.783,2.783 0 0 1 2.782,-2.783 h0.1 a1.887,1.887 0 0 0 1.8770000000000002,-2.081 A1.961,1.961 0 0 0 284.581410053072,143.10703068963272 z" style="fill:#fff" id="svg_68" class=""/><g style="opacity:0.59;mix-blend-mode:overlay" id="svg_69" class=""><path d="M124.83741005307195,182.56103068963267 h0 a1.779,1.779 0 0 1 -1.78,-1.779 h0 a1.258,1.258 0 0 0 -1.086,-1.274 a1.211,1.211 0 0 0 -1.336,1.2 v0.07 a1.778,1.778 0 0 1 -1.779,1.779 h0 a1.259,1.259 0 0 0 -1.274,1.086 a1.212,1.212 0 0 0 1.205,1.336 h0.06900000000000008 a1.779,1.779 0 0 1 1.779,1.78 h0 a1.258,1.258 0 0 0 1.086,1.2730000000000001 a1.211,1.211 0 0 0 1.336,-1.2 v-0.06300000000000006 a1.786,1.786 0 0 1 1.786,-1.786 h0.06300000000000006 a1.211,1.211 0 0 0 1.2,-1.336 A1.258,1.258 0 0 0 124.83741005307195,182.56103068963267 z" style="fill:#174268" id="svg_70"/></g><g style="opacity:0.59;mix-blend-mode:overlay" id="svg_71" class=""><path d="M298.43741005307197,229.66903068963268 h0 a1.78,1.78 0 0 1 -1.78,-1.78 h0 a1.258,1.258 0 0 0 -1.085,-1.274 a1.212,1.212 0 0 0 -1.336,1.2 v0.06900000000000008 a1.78,1.78 0 0 1 -1.78,1.78 h0 a1.2570000000000001,1.2570000000000001 0 0 0 -1.2730000000000001,1.085 a1.211,1.211 0 0 0 1.2,1.336 h0.06900000000000008 a1.78,1.78 0 0 1 1.78,1.78 h0 a1.2570000000000001,1.2570000000000001 0 0 0 1.086,1.2730000000000001 a1.21,1.21 0 0 0 1.335,-1.2 v-0.06300000000000006 a1.786,1.786 0 0 1 1.786,-1.786 h0.06300000000000006 a1.212,1.212 0 0 0 1.205,-1.336 A1.259,1.259 0 0 0 298.43741005307197,229.66903068963268 z" style="fill:#174268" id="svg_72"/></g><g style="opacity:0.59;mix-blend-mode:overlay" id="svg_73" class=""><path d="M69.77441005307196,209.27303068963272 h0 A2.773,2.773 0 0 1 67.00141005307196,206.5000306896327 h0 a1.961,1.961 0 0 0 -1.6920000000000006,-1.9849999999999999 a1.887,1.887 0 0 0 -2.081,1.8770000000000002 v0.10800000000000005 a2.774,2.774 0 0 1 -2.773,2.773 h0 a1.9620000000000002,1.9620000000000002 0 0 0 -1.9849999999999999,1.6920000000000006 a1.887,1.887 0 0 0 1.8770000000000002,2.081 h0.10800000000000005 a2.774,2.774 0 0 1 2.773,2.773 h0 a1.9620000000000002,1.9620000000000002 0 0 0 1.6920000000000006,1.9849999999999999 a1.887,1.887 0 0 0 2.081,-1.8770000000000002 v-0.1 a2.783,2.783 0 0 1 2.783,-2.783 h0.1 a1.8860000000000001,1.8860000000000001 0 0 0 1.8760000000000003,-2.081 A1.96,1.96 0 0 0 69.77441005307196,209.27303068963272 z" style="fill:#174268" id="svg_74"/></g><path d="M262.82841005307193,198.82503068963268 h0 a3.3,3.3 0 0 1 -3.295,-3.3 h0 a2.3280000000000003,2.3280000000000003 0 0 0 -2.01,-2.358 a2.241,2.241 0 0 0 -2.473,2.23 v0.128 a3.3,3.3 0 0 1 -3.3,3.3 h0 a2.331,2.331 0 0 0 -2.358,2.01 a2.242,2.242 0 0 0 2.23,2.473 h0.128 a3.3,3.3 0 0 1 3.3,3.3 h0 a2.329,2.329 0 0 0 2.01,2.358 a2.242,2.242 0 0 0 2.473,-2.23 v-0.11600000000000008 a3.308,3.308 0 0 1 3.307,-3.307 h0.11600000000000008 a2.242,2.242 0 0 0 2.23,-2.473 A2.33,2.33 0 0 0 262.82841005307193,198.82503068963268 z" style="fill:#fff" id="svg_75" class=""/></g></svg>